# xmcd
#
# Track frame offsets:
#	150
#	6862
#	24220
#	42832
#	54475
#	70350
#	84372
#	102685
#	120232
#	124352
#	139815
#	156145
#	174577
#	188905
#	205882
#	220542
#	231985
#	251570
#	265292
#	284642
#	302445
#	306415
#
# Disc length: 4368 seconds
#
# Revision: 0
# Processed by: cddbd v1.5.1PL2 Copyright (c) Steve Scherf et al.
# Submitted via: dBpowerAMP V4.0
#
DISCID=3c110e16
DTITLE=Various Artist - Street Music vol.1 disc:1
DYEAR=2005
DGENRE=Gangsta
TTITLE0=Intro
TTITLE1=Up Here feat:Play boy "D"
TTITLE2=No Fool feat:Play boy "D" and Mista Lee
TTITLE3=What Da Fuck U Sayfeat: Bigg Hank
TTITLE4=Me and My boy feat:Play Boy "D"
TTITLE5=UH Uh
TTITLE6=Dope Game Rap Shit feat:Play boy "D" and Bigg Hank
TTITLE7=Do Dat Den feat:Cbc
TTITLE8=Skit
TTITLE9=Pimp tight feat:Play Boy"D"
TTITLE10=Turn It Losse(Rice and Beans)feat:Play Boy"D"
TTITLE11=Street Music feat:D-Note
TTITLE12=Grimey As it Get feat:Cbc
TTITLE13=Picture On The Wall feat:Cbc
TTITLE14=Small or Tall feat:PlayBoy"D"
TTITLE15=Commercial feat:Ges and D-Note
TTITLE16=Don't Draw Like That feat:Freedom
TTITLE17=What's My Name feat:Cbc
TTITLE18=Unforgiven feat:Cbc
TTITLE19=Let us In feat:Play Boy "D"
TTITLE20=Skit feat:Reggie "Smooth As Butter" Brown
TTITLE21=Baby Drew - Pop Dat"P" feat:Play Boy "D"
EXTD=
EXTT0=
EXTT1=
EXTT2=
EXTT3=
EXTT4=
EXTT5=
EXTT6=
EXTT7=
EXTT8=
EXTT9=
EXTT10=
EXTT11=
EXTT12=
EXTT13=
EXTT14=
EXTT15=
EXTT16=
EXTT17=
EXTT18=
EXTT19=
EXTT20=
EXTT21=
PLAYORDER=
